# xmcd
#
# Track frame offsets:
#	150
#	18614
#	33446
#	47104
#	67382
#	82018
#	97768
#	112885
#	129503
#	147897
#	169335
#	191519
#	208059
#	227712
#	245472
#	265984
#
# Disc length: 3762
#
# Revision: 1
# Processed by: cddbd v1.5.1PL0 Copyright (c) Steve Scherf et al.
# Submitted via: FreeRIP 2.92 
# Normalized: r0:TRMNUM
#
DISCID=e60eb010
DTITLE=Звезды NOTRE DAME - Песни для взрослых
DYEAR=2003
DGENRE=
TTITLE0=Слова
TTITLE1=Вечная Лябовь
TTITLE2=Чао, Бамбино!
TTITLE3=Если б не было тебя
TTITLE4=Весна
TTITLE5=Шербурские зонтики
TTITLE6=Елисейские поля
TTITLE7=История любви
TTITLE8=Там, где нет тебя
TTITLE9=Вояж
TTITLE10=Мадмуазель поет блюз
TTITLE11=Эмануэль
TTITLE12=Где же ты?
TTITLE13=Милорд
TTITLE14=Мой путь
TTITLE15=Любовь
EXTD=ЛЮБИМЫЙ!!!!!!
EXTT0=
EXTT1=
EXTT2=
EXTT3=
EXTT4=
EXTT5=
EXTT6=
EXTT7=
EXTT8=
EXTT9=
EXTT10=
EXTT11=
EXTT12=
EXTT13=
EXTT14=
EXTT15=
PLAYORDER=
